<svg xmlns="http://www.w3.org/2000/svg" width="241" height="237" viewBox="0 0 241 237"><path d="M58.374,236H0a240.073,240.073,0,0,1,4.988-47.593,237,237,0,0,1,139.3-169.876A233.721,233.721,0,0,1,188.445,4.79,236.289,236.289,0,0,1,235.837,0c.39,0,.773,0,1.163,0V58.131c-.294,0-.577,0-.876,0a178.085,178.085,0,0,0-35.72,3.61A176.259,176.259,0,0,0,137,88.485,178.851,178.851,0,0,0,58.374,236Z" transform="translate(237 236) rotate(180)" fill="#fed167"/><path d="M237,237H0L237,0V237Z" transform="translate(4 237) rotate(-90)" fill="#05d5a1"/></svg>