<svg xmlns="http://www.w3.org/2000/svg" width="237" height="237" viewBox="0 0 237 237"><g transform="translate(-0.005 -0.027)"><path d="M237,237H0V0H237V237ZM119.084,66.546a52.373,52.373,0,1,0,20.45,4.129A52.207,52.207,0,0,0,119.084,66.546Z" transform="translate(0.005 0.027)" fill="#05d5a1"/></g><path d="M58.374,237H0a242.074,242.074,0,0,1,4.988-47.794A238.427,238.427,0,0,1,104.315,40.448,233.17,233.17,0,0,1,235.837,0c.39,0,.773,0,1.163,0V58.378c-.294,0-.577,0-.876,0A175.795,175.795,0,0,0,137,88.86,179.666,179.666,0,0,0,62.133,200.978,182.5,182.5,0,0,0,58.374,237Z" transform="translate(0 237) rotate(-90)" fill="#ef4871"/></svg>