<svg xmlns="http://www.w3.org/2000/svg" width="947" height="947" viewBox="0 0 947 947"><g transform="translate(-973 -133)"><g transform="translate(1446 369)"><path d="M237,237H0V0H237V237ZM119.084,66.546a52.373,52.373,0,1,0,20.45,4.129A52.207,52.207,0,0,0,119.084,66.546Z" fill="#05d5a1"/></g><g transform="translate(1210 369)"><path d="M236,0h0a0,0,0,0,1,0,0V237a0,0,0,0,1,0,0H0a0,0,0,0,1,0,0v-1A236,236,0,0,1,236,0Z" fill="#ef4871"/></g><g transform="translate(1683 369)"><path d="M237,0h0a0,0,0,0,1,0,0V237a0,0,0,0,1,0,0H0a0,0,0,0,1,0,0v0A237,237,0,0,1,237,0Z" fill="#fed167"/></g><g transform="translate(1683 606)"><g transform="translate(-0.005 -0.027)"><path d="M237,237H0V0H237V237ZM119.084,66.546a52.373,52.373,0,1,0,20.45,4.129A52.207,52.207,0,0,0,119.084,66.546Z" transform="translate(0.005 0.027)" fill="#05d5a1"/></g><path d="M58.374,237H0a242.074,242.074,0,0,1,4.988-47.794A238.427,238.427,0,0,1,104.315,40.448,233.17,233.17,0,0,1,235.837,0c.39,0,.773,0,1.163,0V58.378c-.294,0-.577,0-.876,0A175.795,175.795,0,0,0,137,88.86,179.666,179.666,0,0,0,62.133,200.978,182.5,182.5,0,0,0,58.374,237Z" transform="translate(0 237) rotate(-90)" fill="#ef4871"/></g><g transform="translate(1210 606)"><path d="M58.374,237H0a242.074,242.074,0,0,1,4.988-47.794A238.427,238.427,0,0,1,104.315,40.448,233.17,233.17,0,0,1,235.837,0c.39,0,.773,0,1.163,0V58.378c-.294,0-.577,0-.876,0A175.795,175.795,0,0,0,137,88.86,179.666,179.666,0,0,0,62.133,200.978,182.5,182.5,0,0,0,58.374,237Z" transform="translate(0 237) rotate(-90)" fill="#fed167"/></g><g transform="translate(1210 843)"><path d="M237,237H0V0H237V237ZM119.084,66.546a52.373,52.373,0,1,0,20.45,4.129A52.209,52.209,0,0,0,119.084,66.546Z" fill="#05d5a1"/></g><g transform="translate(1683 843)"><path d="M237,0h0a0,0,0,0,1,0,0V237a0,0,0,0,1,0,0H0a0,0,0,0,1,0,0v0A237,237,0,0,1,237,0Z" transform="translate(237) rotate(90)" fill="#ef4871"/></g><g transform="translate(973 843)"><path d="M237,0h0a0,0,0,0,1,0,0V237a0,0,0,0,1,0,0H0a0,0,0,0,1,0,0v0A237,237,0,0,1,237,0Z" fill="#fed167"/></g><g transform="translate(1447 843)"><path d="M58.374,237H0a242.074,242.074,0,0,1,4.988-47.794A238.427,238.427,0,0,1,104.315,40.448,233.17,233.17,0,0,1,235.837,0c.39,0,.773,0,1.163,0V58.378c-.294,0-.577,0-.876,0A175.795,175.795,0,0,0,137,88.86,179.666,179.666,0,0,0,62.133,200.978,182.5,182.5,0,0,0,58.374,237Z" fill="#fed167"/><path d="M237,237H0L237,0V237Z" transform="translate(237) rotate(90)" fill="#05d5a1"/></g><g transform="translate(1679 133)"><path d="M58.374,236H0a240.073,240.073,0,0,1,4.988-47.593,237,237,0,0,1,139.3-169.876A233.721,233.721,0,0,1,188.445,4.79,236.289,236.289,0,0,1,235.837,0c.39,0,.773,0,1.163,0V58.131c-.294,0-.577,0-.876,0a178.085,178.085,0,0,0-35.72,3.61A176.259,176.259,0,0,0,137,88.485,178.851,178.851,0,0,0,58.374,236Z" transform="translate(237 236) rotate(180)" fill="#fed167"/><path d="M237,237H0L237,0V237Z" transform="translate(4 237) rotate(-90)" fill="#05d5a1"/></g><g transform="translate(1446 606)"><path d="M237,237H0L237,0V237Z" fill="#0dd3a2"/><path d="M237,237H0L237,0V237Z" transform="translate(237 237) rotate(180)" fill="#fed167"/></g><g transform="translate(1447 133)"><path d="M236,0V236H0C0,105.661,105.661,0,236,0Z" transform="translate(0 236) rotate(-90)" fill="#ef4871"/></g></g></svg>